# xmcd
#
# Track frame offsets:
#	150
#	15193
#	29765
#	44687
#	57877
#	72405
#	89079
#	105430
#	121324
#	134887
#	150614
#	166651
#	182377
#	200506
#	213860
#	227636
#	244873
#	259272
#	278907
#
# Disc length: 3908 seconds
#
# Revision: 1
# Processed by: cddbd v1.5.2PL0 Copyright (c) Steve Scherf et al.
# Submitted via: audiograbber 1.83.01
#
DISCID=0f0f4213
DTITLE=Various Artist - Country Heat 2017
DYEAR=2016
DGENRE=New Country
TTITLE0=Jake Owen - American Country Love Song
TTITLE1=Cold Creek County - Till The Wheels Come Off
TTITLE2=Maren Morris - My Church
TTITLE3=Brett Eldredge - Drunk On Your Love
TTITLE4=Old Dominion - Song For Another Time
TTITLE5=Blake Shelton - Came Here To Forget
TTITLE6=Cam - Mayday
TTITLE7=Carrie Underwood - Heartbeat
TTITLE8=Kira Isabella - I'm So Over Getting Over You
TTITLE9=Locash - I Love This Life
TTITLE10=Aaron Goodvin - Woman In Love
TTITLE11=Meghan Patrick - Bow Chicka Wow Wow
TTITLE12=Washboard Union, The - Shot Of Glory
TTITLE13=Gord Bamford - Breakfast Beer
TTITLE14=Kane Brown - Used To Love You Sober
TTITLE15=Brett Kissel - Cool With That
TTITLE16=Cole Swindell - You Should Be Here
TTITLE17=Frankie Ballard - It All Started With A Beer
TTITLE18=Abrams, The - Fine
EXTD=
EXTT0=
EXTT1=
EXTT2=
EXTT3=
EXTT4=
EXTT5=
EXTT6=
EXTT7=
EXTT8=
EXTT9=
EXTT10=
EXTT11=
EXTT12=
EXTT13=
EXTT14=
EXTT15=
EXTT16=
EXTT17=
EXTT18=
PLAYORDER=
